<svg width="40" height="40" viewBox="0 0 40 40" fill="none" xmlns="http://www.w3.org/2000/svg">
<path d="M24.0607 5.81211C25.4758 4.91417 27.1288 4.46359 28.804 4.51881C30.9656 4.58021 33.1019 5.00157 35.1249 5.76508C37.6096 6.59705 39.2292 8.98942 39.079 11.6049C38.761 15.6921 38.0359 19.7377 36.9146 23.6807C36.2257 26.082 33.7728 27.2484 29.4155 27.2484C23.8979 27.2484 23.5621 27.0416 22.2332 22.8225C21.2626 19.181 20.8167 15.4196 20.9087 11.6525C21.1721 9.37402 22.3003 7.28364 24.0604 5.81258L24.0607 5.81211ZM4.87522 5.76509C6.89826 5.00161 9.03455 4.58024 11.1962 4.51883C12.8713 4.46359 14.5243 4.91417 15.9394 5.81213C17.6995 7.28325 18.8277 9.37357 19.0911 11.652C19.1831 15.4196 18.7371 19.1805 17.7666 22.8221C16.4376 27.0411 16.102 27.2479 10.5843 27.2479C6.22724 27.2479 3.7742 26.0815 3.08518 23.6812C1.96382 19.7377 1.23881 15.6922 0.920833 11.6048C0.770623 8.98926 2.39032 6.59695 4.87493 5.76498L4.87522 5.76509ZM39.9998 29.6935C40.0269 32.8283 37.511 35.3939 34.3758 35.4286H5.62419C2.48897 35.3939 -0.0269568 32.8283 0.000218082 29.6935V20.6767C0.000218082 20.4995 0.0474726 20.1412 0.310912 20.0268C0.6143 21.4495 0.957616 22.8583 1.33818 24.1829C2.26844 27.4229 5.37923 29.0659 10.5841 29.0659C16.5386 29.0659 17.8494 28.6096 19.5009 23.3689C19.6886 22.7738 19.8514 22.135 20 21.4675C20.1486 22.135 20.3116 22.7738 20.499 23.3689C22.1502 28.6097 23.4614 29.0659 29.4159 29.0659C34.6207 29.0659 37.7314 27.4229 38.6618 24.1822C39.0364 22.8782 39.3749 21.4922 39.6749 20.0921C39.8758 20.2188 39.9984 20.4393 39.9997 20.6767L39.9998 29.6935Z" fill="#D4AF37"/>
</svg>
