<svg width="40" height="40" viewBox="0 0 40 40" fill="none" xmlns="http://www.w3.org/2000/svg">
<g clip-path="url(#clip0_28_314)">
<path d="M32.907 16.7597C32.907 14.8835 32.2815 13.1326 31.0937 11.7567C29.9054 10.3809 28.2797 9.44301 26.4659 9.19264L25.9032 9.13026V16.447H20.5251V20.6992L21.4006 19.7613L22.1509 20.4492L20.0248 22.7629L17.8987 20.4492L18.649 19.7613L19.5245 20.6992V16.447H14.1464V9.0675L13.5837 9.12988C11.7703 9.37984 10.1441 10.3182 8.95589 11.694C7.7676 13.0698 7.14258 14.8832 7.14258 16.6969C7.14258 18.3855 7.7053 19.9489 8.7684 21.2619C10.3942 23.3256 11.2696 25.9521 11.2073 28.5786C11.1449 30.8923 11.4572 33.0189 11.6453 34.3319C11.6453 34.4571 11.7076 34.6447 11.7076 34.7699C12.0204 36.9589 12.5831 38.4594 13.3335 39.2725C14.0214 40.0228 14.7717 40.0228 15.1468 40.0228H15.2091H15.2715C17.1477 40.0228 17.7727 36.5209 18.4607 32.8314C18.7107 31.5179 18.8987 30.3302 19.1487 29.3918C19.4614 28.1412 19.7742 27.9536 19.7742 27.9536H20.0241H20.2741C20.3365 27.9536 20.5869 28.1411 20.962 29.3918C21.212 30.3296 21.4624 31.5808 21.7123 32.8937C22.0251 34.5195 22.3378 36.2081 22.7754 37.5214C23.1505 38.5845 23.7132 40.0226 24.9015 40.0226C25.9645 40.0226 27.2779 39.3971 28.4662 34.7698C28.779 33.5815 29.0289 31.205 28.9666 28.5786C28.9042 25.9521 29.7797 23.3257 31.4055 21.2619C32.2818 20.0113 32.8446 18.4479 32.9073 16.7598L32.907 16.7597Z" fill="#D4AF37"/>
<path d="M26.4038 0.062378C26.0286 -4.32648e-07 25.6535 0 25.2784 0C23.715 0 22.214 0.437962 20.9633 1.31348C20.4006 1.68862 19.7127 1.68862 19.15 1.31348C17.8994 0.437996 16.336 0 14.8349 0C14.4597 0 14.0846 0.062378 13.7094 0.062378L13.2715 0.124757V8.19166L19.5251 8.1921V4.81538H20.5258V8.1921H26.8418V0.187505L26.4038 0.062378Z" fill="#D4AF37"/>
</g>
<defs>
<clipPath id="clip0_28_314">
<rect width="40" height="40" fill="white"/>
</clipPath>
</defs>
</svg>
