<svg width="40" height="40" viewBox="0 0 40 40" fill="none" xmlns="http://www.w3.org/2000/svg">
<g clip-path="url(#clip0_170_2751)">
<path d="M38.3329 18.3333C37.8908 18.3333 37.4669 18.1577 37.1543 17.8452C36.8418 17.5326 36.6662 17.1087 36.6662 16.6667C36.6627 13.1315 35.2568 9.74219 32.757 7.24247C30.2573 4.74275 26.868 3.33686 23.3329 3.33333C22.8908 3.33333 22.4669 3.15774 22.1543 2.84518C21.8418 2.53262 21.6662 2.1087 21.6662 1.66667C21.6662 1.22464 21.8418 0.800719 22.1543 0.488158C22.4669 0.175598 22.8908 3.08664e-06 23.3329 3.08664e-06C27.7516 0.00485575 31.988 1.76236 35.1126 4.88691C38.2372 8.01147 39.9947 12.2479 39.9995 16.6667C39.9995 17.1087 39.8239 17.5326 39.5114 17.8452C39.1988 18.1577 38.7749 18.3333 38.3329 18.3333ZM33.3329 16.6667C33.3329 14.0145 32.2793 11.471 30.4039 9.5956C28.5286 7.72023 25.985 6.66667 23.3329 6.66667C22.8908 6.66667 22.4669 6.84226 22.1543 7.15482C21.8418 7.46738 21.6662 7.8913 21.6662 8.33333C21.6662 8.77536 21.8418 9.19928 22.1543 9.51184C22.4669 9.8244 22.8908 10 23.3329 10C25.101 10 26.7967 10.7024 28.0469 11.9526C29.2971 13.2029 29.9995 14.8986 29.9995 16.6667C29.9995 17.1087 30.1751 17.5326 30.4877 17.8452C30.8002 18.1577 31.2242 18.3333 31.6662 18.3333C32.1082 18.3333 32.5321 18.1577 32.8447 17.8452C33.1573 17.5326 33.3329 17.1087 33.3329 16.6667ZM36.9712 36.94L38.4879 35.1917C39.4532 34.2232 39.9953 32.9116 39.9953 31.5442C39.9953 30.1768 39.4532 28.8651 38.4879 27.8967C38.4362 27.845 34.4262 24.76 34.4262 24.76C33.4638 23.8439 32.1854 23.3338 30.8567 23.3356C29.528 23.3375 28.251 23.8512 27.2912 24.77L24.1145 27.4467C21.5215 26.3735 19.166 24.7986 17.1833 22.8125C15.2007 20.8264 13.6299 18.4682 12.5612 15.8733L15.2278 12.7067C16.1474 11.747 16.6617 10.4698 16.6639 9.14067C16.666 7.81155 16.1559 6.53271 15.2395 5.57C15.2395 5.57 12.1512 1.565 12.0995 1.51334C11.1486 0.55625 9.85932 0.0117064 8.51023 -0.00263894C7.16114 -0.0169843 5.86057 0.50002 4.88952 1.43667L2.97285 3.10333C-8.35048 16.24 16.0328 40.435 29.6028 40C30.9732 40.0079 32.3312 39.7412 33.5967 39.2157C34.8622 38.6901 36.0096 37.9163 36.9712 36.94Z" fill="#D4AF37"/>
</g>
<defs>
<clipPath id="clip0_170_2751">
<rect width="40" height="40" fill="white"/>
</clipPath>
</defs>
</svg>
