<svg width="40" height="40" viewBox="0 0 40 40" fill="none" xmlns="http://www.w3.org/2000/svg">
<g clip-path="url(#clip0_109_1939)">
<path d="M39.5501 8.48242L39.5391 8.49203C39.5396 8.49258 39.5396 8.49341 39.5404 8.49396C39.5432 8.48984 39.5473 8.48654 39.5501 8.48242Z" fill="#D4AF37"/>
<path d="M39.5402 8.49433C39.5341 8.50312 39.5245 8.50449 39.5177 8.51135L39.5388 8.49241C38.016 6.3286 32.9275 4.68787 26.6792 4.44775C26.9728 5.28473 27.1323 6.1725 27.1323 7.08134C27.1323 7.114 27.1282 7.14583 27.1276 7.17766C31.7834 7.40817 35.758 8.41746 38.018 9.83514C35.4382 11.4583 30.6233 12.5525 25.098 12.5525C18.1447 12.5525 12.3024 10.8228 10.6459 8.4828C10.3393 8.91611 10.1758 9.37056 10.1758 9.83928C10.1758 12.8359 16.8569 15.2656 25.0979 15.2656C33.3392 15.2656 40.0201 12.8359 40.0201 9.83928C40.0201 9.37414 39.8431 8.92489 39.5404 8.49432L39.5402 8.49433Z" fill="#D4AF37"/>
<path d="M8.81781 9.83894C8.81781 9.09279 9.05985 8.37244 9.53733 7.69816L10.6449 6.13394L11.7519 7.69816C12.9254 9.35596 17.8208 11.1114 24.6403 11.188L25.303 9.53102C25.6164 8.74891 25.7753 7.92402 25.7753 7.081C25.7753 5.15267 24.9356 3.32669 23.4713 2.07122C22.1708 0.956824 20.5116 0.342896 18.7984 0.342896H17.9748C16.5898 0.342896 15.2169 0.800626 14.1086 1.63159C13.389 2.17083 12.3849 2.17028 11.6667 1.63159C10.5584 0.800655 9.18546 0.342896 7.80045 0.342896H6.97689C5.26367 0.342896 3.60454 0.956775 2.30432 2.07122C0.839716 3.32669 0 5.15267 0 7.081C0 7.92402 0.158614 8.74807 0.472006 9.53102L3.68025 17.5516C3.78344 17.8107 4.03124 17.9784 4.30977 17.9784H21.4652C21.744 17.9784 21.9915 17.8107 22.0947 17.5516L22.4998 16.5396C15.3439 16.0953 8.81827 13.8135 8.81827 9.8388L8.81781 9.83894ZM5.72864 4.29869L6.48026 3.17003L6.93003 3.46915C8.5768 4.56654 10.7862 4.70487 12.5565 3.81985L12.8616 3.66728L13.1934 3.80778C15.02 4.72133 17.1975 4.56734 18.8443 3.46942L19.2941 3.1703L20.0457 4.29896L19.5959 4.59808C18.448 5.36424 17.1111 5.76931 15.7294 5.76931C14.7541 5.76931 13.7771 5.56048 12.8853 5.16285C10.6828 6.13815 8.13039 5.90021 6.17711 4.59781L5.72864 4.29869Z" fill="#D4AF37"/>
<path d="M21.1316 23.4053H4.64495C4.32827 23.4053 4.07031 23.663 4.07031 23.9797C4.07031 24.0115 4.07306 24.0433 4.07855 24.0754L6.5332 38.8051C6.618 39.3144 7.05488 39.684 7.57103 39.684C7.99364 39.684 8.36052 39.3978 8.46238 38.9881L10.5441 30.6612C10.8133 29.5836 11.7771 28.8311 12.8882 28.8311C13.9993 28.8311 14.9631 29.5833 15.2317 30.6612L17.3135 38.9874C17.4159 39.3979 17.7828 39.6842 18.2054 39.6842C18.7215 39.6842 19.1584 39.3145 19.2432 38.8052L21.6987 24.0749C21.7031 24.0436 21.7058 24.0115 21.7058 23.9796C21.7058 23.663 21.4481 23.4053 21.1315 23.4053L21.1316 23.4053Z" fill="#D4AF37"/>
<path d="M8.0365 19.3348L7.58398 22.048H18.1927L17.7401 19.3348H8.0365Z" fill="#D4AF37"/>
<path d="M28.4884 36.0118V17.3003H27.1317V36.0118L25.5763 34.4564L24.6172 35.4154L27.8101 38.6083L31.0027 35.4154L30.0436 34.4564L28.4884 36.0118Z" fill="#D4AF37"/>
<path d="M33.914 25.8374V15.9438H32.5575V25.8374L31.002 24.2822L30.043 25.2413L33.2358 28.4339L36.4284 25.2413L35.4694 24.2822L33.914 25.8374Z" fill="#D4AF37"/>
</g>
<defs>
<clipPath id="clip0_109_1939">
<rect width="40" height="40" fill="white"/>
</clipPath>
</defs>
</svg>
