<svg width="40" height="40" viewBox="0 0 40 40" fill="none" xmlns="http://www.w3.org/2000/svg">
<path d="M23.6103 2.41517C21.7033 2.41517 19.9237 2.92372 18.3347 4.00421C17.6355 4.51276 16.6822 4.51276 15.983 4.00421C14.4574 2.92372 12.6142 2.35172 10.7074 2.41517C8.22849 2.41517 6.00372 3.43226 4.28778 5.14809C2.5715 6.86437 1.68164 9.21603 1.68164 11.6315C1.68164 13.6657 2.38084 15.5722 3.5886 17.1612C5.5589 19.7035 6.63945 22.8815 6.51266 26.1235C6.44926 28.9204 6.83056 31.5265 7.08461 33.0516C7.08461 33.2423 7.14802 33.3695 7.14802 33.5602C7.52932 36.2298 8.1651 38.0094 9.11831 38.9631C9.94475 39.853 10.7708 39.853 11.2793 39.853H11.3427H11.4061C12.8045 39.853 13.5036 38.1367 13.9483 36.8656C14.4569 35.2766 14.8382 33.179 15.2195 31.2086C15.5374 29.5561 15.7914 27.9671 16.1727 26.8227C16.6178 25.2972 16.9991 25.2337 16.9991 25.2337C17.1264 25.2337 17.1898 25.2337 17.2532 25.1703C17.3166 25.1703 17.4438 25.2337 17.5072 25.2337C17.5072 25.2337 17.8885 25.2971 18.3337 26.8862C18.715 28.094 18.9695 29.683 19.2869 31.3354C19.6682 33.3057 20.0495 35.3399 20.558 36.9289C20.9393 38.2 21.6385 39.853 23.0369 39.853C24.3081 39.853 25.8338 39.0904 27.2321 33.6241C27.6134 32.2257 27.9313 29.3021 27.8679 26.124C27.8045 22.8825 28.8212 19.7044 30.792 17.1617C31.9998 15.5727 32.6989 13.6657 32.6989 11.632C32.6989 9.15307 31.8091 6.86485 30.0928 5.14858C28.3774 3.4323 26.0892 2.47865 23.6103 2.4152L23.6103 2.41517ZM7.91056 8.13548C6.83007 9.02532 6.0036 10.233 5.62235 11.5676L4.60526 11.3135C5.05041 9.72449 5.94028 8.32614 7.27485 7.30904C8.60987 6.29195 10.1989 5.72 11.8513 5.72V6.73708C10.3899 6.73708 9.05491 7.24563 7.91057 8.13544L7.91056 8.13548ZM27.2333 10.5509C26.9154 10.7416 26.5975 10.9961 26.4069 11.3774L25.7711 12.5213L25.1353 11.3774C24.9446 11.0595 24.6901 10.7416 24.3088 10.5509L23.1649 9.91514L24.3088 9.27934C24.6267 9.08869 24.9446 8.8342 25.1353 8.45291L25.7711 7.30902L26.4069 8.45291C26.5975 8.7708 26.852 9.0887 27.2333 9.27934L28.3772 9.91514L27.2333 10.5509Z" fill="#D4AF37"/>
<path d="M37.5297 11.8858C37.2756 11.7585 37.0211 11.5045 36.8939 11.25L36.3857 10.3606L35.8772 11.2504C35.75 11.5045 35.4959 11.759 35.2414 11.8862L34.3516 12.3948L35.2414 12.9033C35.4955 13.0306 35.75 13.2846 35.8772 13.5391L36.3857 14.429L36.8943 13.5391C37.0215 13.2851 37.2756 13.0306 37.5301 12.9033L38.4199 12.3948L37.5297 11.8858Z" fill="#D4AF37"/>
<path d="M35.2424 5.02118C35.4964 4.57604 35.8143 4.19475 36.2595 4.0041L37.7213 3.24149L36.2595 2.47889C35.8143 2.22484 35.433 1.90694 35.2424 1.4618L34.4798 0L33.7172 1.4618C33.4631 1.90695 33.1452 2.28824 32.7001 2.47889L31.2383 3.24149L32.7001 4.0041C33.1452 4.25815 33.5265 4.57605 33.7172 5.02118L34.4798 6.48299L35.2424 5.02118Z" fill="#D4AF37"/>
</svg>
