<svg width="40" height="40" viewBox="0 0 40 40" fill="none" xmlns="http://www.w3.org/2000/svg">
<path d="M29.6567 25.7518C29.6567 26.4458 29.0945 27.0081 28.4005 27.0081C27.7068 27.0081 27.1445 26.4458 27.1445 25.7518C27.1445 25.0581 27.7068 24.4958 28.4005 24.4958C29.0945 24.4958 29.6567 25.0581 29.6567 25.7518Z" fill="#D4AF37"/>
<path d="M27.9399 18.3403C27.6049 18.6754 27.2281 18.9265 26.8513 19.1777C27.6887 20.0572 28.7776 21.5646 29.0288 23.2812C30.1594 23.5324 30.9968 24.5792 30.9968 25.7516C30.9968 27.1752 29.8662 28.3058 28.4426 28.3058C27.019 28.3058 25.8883 27.1752 25.8883 25.7516C25.8883 24.621 26.684 23.6162 27.7308 23.323C27.4796 21.8994 26.4328 20.6014 25.721 19.8893C24.0041 20.8105 22.0781 21.3129 20.0263 21.3129C18.0582 21.3129 16.1739 20.8105 14.4989 19.9728C13.7871 21.0614 12.6564 23.1971 12.4891 25.7513C14.6245 26.0863 16.2575 27.9288 16.2575 30.1897V33.1629C16.2575 33.5397 15.9642 33.8329 15.5874 33.8329H13.5356C13.1588 33.8329 12.8656 33.5396 12.8656 33.1629C12.8656 32.7861 13.1588 32.4928 13.5356 32.4928H14.9592V30.148C14.9592 28.3894 13.5356 26.9658 11.7769 26.9658C10.0183 26.9658 8.59466 28.3894 8.59466 30.148V32.4928H10.0183C10.3951 32.4928 10.6883 32.7861 10.6883 33.1629C10.6883 33.5396 10.395 33.8329 10.0183 33.8329H7.92462C7.54783 33.8329 7.25459 33.5396 7.25459 33.1629V30.1897C7.25459 27.9288 8.92935 26.0443 11.1486 25.7513C11.316 22.862 12.5304 20.559 13.3261 19.303C12.8658 19.0101 12.4469 18.7171 12.0284 18.3403C7.08755 19.806 3.48633 24.3701 3.48633 29.7297V37.225C3.48633 38.6486 4.61697 39.7792 6.04057 39.7792H33.9698C35.3934 39.7792 36.524 38.6486 36.524 37.225L36.5237 29.7297C36.482 24.328 32.8809 19.764 27.9398 18.3403H27.9399ZM27.647 34.4614C27.647 34.6708 27.4796 34.8382 27.2702 34.8382H25.5954V36.555C25.5954 36.7644 25.428 36.9318 25.2186 36.9318H23.7529C23.5435 36.9318 23.3761 36.7644 23.3761 36.555V34.8382H21.7014C21.4919 34.8382 21.3246 34.6708 21.3246 34.4614V32.9539C21.3246 32.7445 21.4919 32.5772 21.7014 32.5772H23.3761V30.8603C23.3761 30.6509 23.5435 30.4835 23.7529 30.4835H25.2186C25.428 30.4835 25.5954 30.6509 25.5954 30.8603V32.5772H27.2702C27.4796 32.5772 27.647 32.7445 27.647 32.9539V34.4614Z" fill="#D4AF37"/>
<path d="M29.2383 9.2539C29.2383 14.3645 25.0951 18.5078 19.9844 18.5078C14.8736 18.5078 10.7305 14.3646 10.7305 9.2539C10.7305 4.14302 14.8736 0 19.9844 0C25.0951 0 29.2383 4.14317 29.2383 9.2539Z" fill="#D4AF37"/>
</svg>
