<svg width="40" height="40" viewBox="0 0 40 40" fill="none" xmlns="http://www.w3.org/2000/svg">
<g clip-path="url(#clip0_31_113)">
<path d="M30.4946 12.0973C30.2057 9.94178 29.3879 8.39945 28.1168 7.51503C26.8457 6.63054 25.0992 6.40396 22.957 6.86184L22.0682 7.06179C20.7258 7.4152 19.3484 7.61795 17.9615 7.66631C16.5745 7.61795 15.1971 7.4152 13.8551 7.06179L12.9663 6.86184C10.8198 6.41728 9.08651 6.62189 7.80647 7.51503C6.52642 8.4085 5.73526 9.94147 5.42868 12.097C4.98412 15.1503 7.65083 21.5237 8.13534 22.6792C7.53981 29.1856 7.7841 34.132 8.86852 37.3811C8.90417 37.4921 9.7573 40.0032 11.2863 40.0032H11.424C12.7573 39.8699 13.5528 38.03 14.0907 33.8433C14.7039 28.9544 15.4774 26.439 17.9972 26.4256C20.5173 26.4123 21.2904 28.9368 21.9036 33.8433C22.4282 38.03 23.237 39.8699 24.5704 40.0032H24.708C26.2324 40.0032 27.0858 37.4921 27.1258 37.3811C28.2102 34.1322 28.4592 29.1853 27.859 22.6792C28.2859 21.5237 30.9346 15.1506 30.4947 12.0978L30.4946 12.0973ZM14.7308 13.6349C13.4821 14.0711 12.5005 15.0529 12.064 16.3014C11.6127 15.0322 10.5983 14.0442 9.31769 13.626C10.5847 13.1941 11.5817 12.2021 12.0198 10.9372C12.4578 12.2021 13.4548 13.1941 14.7218 13.626L14.7308 13.6349Z" fill="#D4AF37"/>
<path d="M36.1973 3.99972C34.3103 3.35706 32.8235 1.88201 32.1663 0C31.5081 1.88304 30.0198 3.35831 28.1309 3.99972C30.0309 4.64207 31.5273 6.12704 32.1839 8.02182C32.8349 6.14688 34.3087 4.67279 36.1839 4.0221L36.2149 3.9911L36.1973 3.99972Z" fill="#D4AF37"/>
<path d="M6.82044 5.33306C6.11021 5.07824 5.55619 4.5115 5.3181 3.79541C5.07071 4.52114 4.49876 5.08998 3.77148 5.33306C4.49381 5.57177 5.06486 6.13137 5.3181 6.84873C5.56208 6.14098 6.11514 5.58329 6.82044 5.33306Z" fill="#D4AF37"/>
</g>
<defs>
<clipPath id="clip0_31_113">
<rect width="40" height="40" fill="white"/>
</clipPath>
</defs>
</svg>
