<svg width="40" height="40" viewBox="0 0 40 40" fill="none" xmlns="http://www.w3.org/2000/svg">
<path d="M32.9719 5.42389C25.8573 -1.75721 14.2684 -1.81119 7.08734 5.30342C-0.093755 12.418 -0.14774 24.0069 6.96687 31.1879C7.02234 31.2439 7.07812 31.2995 7.13429 31.3547L13.6952 37.4132C17.2019 40.8458 22.8048 40.8606 26.3295 37.4465L32.9719 31.3082C40.1194 24.1604 40.1194 12.5718 32.9719 5.42389ZM30.0134 22.5259C30.0134 24.8233 28.151 26.6858 25.8536 26.6858H14.206C11.9086 26.6858 10.0462 24.8233 10.0462 22.5259V16.9151C10.0462 15.2787 10.8481 13.7462 12.1926 12.8135L17.1844 9.35084C18.8968 8.16756 21.1627 8.16756 22.8751 9.35084L27.8669 12.8135C29.2115 13.7462 30.0134 15.2787 30.0134 16.9151V22.5259ZM26.6855 16.9151V22.5258C26.6855 22.9853 26.313 23.3578 25.8536 23.3578H23.3576V20.0299C23.3576 19.1109 22.6126 18.366 21.6937 18.366H18.3658C17.4469 18.366 16.7019 19.111 16.7019 20.0299V23.3578H14.206C13.7466 23.3578 13.3741 22.9853 13.3741 22.5258V16.9151C13.3739 16.3694 13.6412 15.8583 14.0895 15.5473L19.0813 12.0847C19.6526 11.6919 20.4069 11.6919 20.9782 12.0847L25.97 15.5473C26.4183 15.8583 26.6857 16.3694 26.6855 16.9151Z" fill="#D4AF37"/>
</svg>
