<svg width="40" height="40" viewBox="0 0 40 40" fill="none" xmlns="http://www.w3.org/2000/svg">
<path d="M34.6109 36.7197C34.6109 36.7197 41.7341 17.7314 38.3284 7.2218C36.7544 1.29923 30.1538 -1.7026 24.6537 1.00228L24.6375 1.01041C21.679 2.46521 18.2136 2.46775 15.2537 1.01748C9.75728 -1.67545 3.1693 1.32365 1.59358 7.23628C1.56389 7.34765 1.53419 7.45865 1.50484 7.57002C-0.363665 14.5789 1.22837 28.7513 5.98212 37.5458C6.79844 39.0562 8.37629 39.9983 10.0935 39.9867C12.2826 39.9718 14.1716 38.4481 14.6492 36.3123L17.2127 24.8469C17.556 23.3111 18.9342 22.23 20.5077 22.2619C22.1075 22.294 23.4548 23.466 23.7079 25.0457L25.4895 36.1725C25.8405 38.3652 27.7274 39.982 29.949 39.9933C31.8578 40.0028 33.9504 38.5098 34.6119 36.7202L34.6109 36.7197Z" fill="#D4AF37"/>
</svg>
