<svg width="40" height="40" viewBox="0 0 40 40" fill="none" xmlns="http://www.w3.org/2000/svg">
<g clip-path="url(#clip0_109_1863)">
<path d="M14.1479 16.7778C14.675 18.9306 15.8556 21.3804 18.0248 22.9711C18.4431 23.2774 19.0373 23.0309 19.1149 22.5183C19.1149 22.5183 19.2074 21.927 19.4356 21.2192C19.5645 20.8198 19.761 20.3273 20.011 19.9243C20.2689 20.3384 20.4576 20.8198 20.5864 21.2192C20.8147 21.927 20.9071 22.5183 20.9071 22.5183C20.9847 23.0309 21.5791 23.2774 21.9972 22.9711C24.1735 21.3751 25.3506 18.9297 25.8752 16.7804C26.4026 18.9324 27.5838 21.3808 29.7521 22.9711C30.1704 23.2774 30.7646 23.0309 30.8422 22.5183C30.8422 22.5183 30.9347 21.927 31.1629 21.2192C31.2919 20.8198 31.4884 20.3273 31.7383 19.9243C31.9962 20.3384 32.1849 20.8198 32.3137 21.2192C32.542 21.927 32.6344 22.5183 32.6344 22.5183C32.712 23.0309 33.3064 23.2774 33.7245 22.9711C35.407 21.7373 36.4922 19.9962 37.1406 18.2762H37.9478C37.9478 18.2762 38.4925 18.2831 39.0178 18.5457C39.5435 18.8085 40.0167 19.2789 40.0167 20.3434V27.9328H0V20.3434C0 19.3111 0.473172 18.8084 0.998558 18.5457C1.52391 18.2831 2.07259 18.2762 2.07259 18.2762H2.88385C3.53412 19.9985 4.61934 21.7417 6.29577 22.9711C6.71404 23.2774 7.30828 23.0309 7.38588 22.5183C7.38588 22.5183 7.4783 21.927 7.70656 21.2192C7.83549 20.8198 8.03198 20.3273 8.28195 19.9243C8.53982 20.3384 8.72856 20.8198 8.85735 21.2192C9.0856 21.927 9.17946 22.5183 9.17946 22.5183C9.25708 23.0309 9.85001 23.2774 10.2683 22.9711C12.4456 21.3743 13.6234 18.9275 14.1478 16.7778H14.1479Z" fill="#D4AF37"/>
<path d="M27.1738 16.2539H31.0452V16.8955C31.0459 17.0787 31.1195 17.2541 31.2498 17.383C31.3798 17.512 31.5561 17.5838 31.7392 17.5827C31.9213 17.582 32.0957 17.5094 32.2245 17.3806C32.3531 17.2519 32.4258 17.0776 32.4266 16.8954V16.2539H36.3061C35.9424 17.8532 35.1617 19.7255 33.7363 21.1509L33.6285 20.7978C33.364 19.9778 32.9202 18.9518 32.1827 18.3372C31.9262 18.1225 31.5524 18.1225 31.2959 18.3372C30.5754 18.9376 30.1008 19.9735 29.8501 20.7978L29.741 21.1549C28.3233 19.7372 27.5398 17.8588 27.1739 16.2539L27.1738 16.2539Z" fill="#D4AF37"/>
<path d="M15.4453 16.2538H19.3156V16.8954C19.3163 17.0783 19.3898 17.2536 19.5196 17.3825C19.6495 17.5113 19.8253 17.5833 20.0083 17.5826C20.1904 17.5818 20.3648 17.5093 20.4934 17.3805C20.6222 17.2518 20.6948 17.0775 20.6955 16.8953V16.2538H24.5776C24.214 17.853 23.4333 19.7254 22.0079 21.1508L21.9 20.7977C21.6356 19.9777 21.1917 18.9517 20.4542 18.3371C20.1978 18.1223 19.8239 18.1223 19.5674 18.3371C18.8469 18.9375 18.3723 19.9734 18.1216 20.7977L18.0125 21.1548C16.5948 19.7371 15.8113 17.8587 15.4454 16.2538L15.4453 16.2538Z" fill="#D4AF37"/>
<path d="M3.71875 16.2539H7.5931V16.8955C7.59382 17.0776 7.66641 17.2519 7.7952 17.3806C7.92384 17.5094 8.0982 17.582 8.28033 17.5827C8.46244 17.582 8.6368 17.5094 8.76546 17.3806C8.89425 17.2519 8.96684 17.0776 8.96756 16.8955V16.2539H12.8496C12.486 17.8532 11.7066 19.7255 10.2812 21.1509L10.1734 20.7978C9.90889 19.9778 9.46359 18.9518 8.72607 18.3372C8.46964 18.1225 8.09706 18.1225 7.84077 18.3372C7.12021 18.9376 6.64428 19.9735 6.39347 20.7978L6.28438 21.1549C4.8667 19.7372 4.08462 17.859 3.71878 16.2539L3.71875 16.2539Z" fill="#D4AF37"/>
<path d="M28.9827 12.0671C30.4372 12.0671 30.7271 12.32 31.3557 12.7395C31.5871 12.8933 31.8884 12.8933 32.1198 12.7395C32.7484 12.32 33.082 12.0536 34.4942 12.0671C35.5372 12.0771 36.5668 13.015 36.5668 14.1249C36.5668 14.3511 36.5546 14.6033 36.529 14.874H32.4258V14.2327H32.4259C32.4255 14.0504 32.353 13.8756 32.2242 13.7467C32.0954 13.6176 31.9209 13.5447 31.7385 13.544C31.5551 13.543 31.3788 13.615 31.2486 13.7443C31.1183 13.8735 31.045 14.0493 31.0446 14.2327V14.874H26.948C26.9221 14.6031 26.9102 14.3508 26.9102 14.1249C26.9102 13.0149 27.997 12.0671 28.9827 12.0671L28.9827 12.0671Z" fill="#D4AF37"/>
<path d="M17.2563 12.0671C18.7108 12.0671 19.0007 12.32 19.6293 12.7395C19.8607 12.8933 20.162 12.8933 20.3934 12.7395C21.0221 12.32 21.3556 12.0536 22.7678 12.0671C23.8108 12.0771 24.8403 13.0148 24.8403 14.1249C24.8403 14.3512 24.8281 14.6033 24.8025 14.8741H20.6964V14.2327C20.6961 14.0504 20.6237 13.8757 20.4949 13.7467C20.3661 13.6176 20.1914 13.5448 20.0092 13.544C19.8259 13.5433 19.65 13.6156 19.52 13.7447C19.3901 13.8739 19.3169 14.0494 19.3165 14.2327V14.8741H15.2214C15.1955 14.6031 15.1836 14.3509 15.1836 14.1249C15.1836 13.015 16.2704 12.0672 17.2561 12.0672L17.2563 12.0671Z" fill="#D4AF37"/>
<path d="M5.5288 12.0671C6.98327 12.0671 7.2732 12.32 7.90176 12.7395C8.13318 12.8933 8.43447 12.8933 8.66589 12.7395C9.2946 12.32 9.62676 12.0536 11.0388 12.0671C12.0818 12.0771 13.1114 13.0148 13.1114 14.1249C13.1114 14.351 13.1006 14.6033 13.075 14.874H8.96776V14.2327C8.96747 14.0504 8.89503 13.8756 8.76624 13.7467C8.63745 13.6176 8.4628 13.5447 8.28055 13.544C8.09829 13.5447 7.92365 13.6176 7.79487 13.7467C7.66608 13.8756 7.59364 14.0504 7.59335 14.2327V14.874H3.49417C3.4683 14.6031 3.45508 14.3508 3.45508 14.1249C3.45508 13.015 4.54316 12.0671 5.52891 12.0671H5.5288Z" fill="#D4AF37"/>
</g>
<defs>
<clipPath id="clip0_109_1863">
<rect width="40" height="40" fill="white"/>
</clipPath>
</defs>
</svg>
