<svg width="40" height="40" viewBox="0 0 40 40" fill="none" xmlns="http://www.w3.org/2000/svg">
<g clip-path="url(#clip0_109_1958)">
<path d="M26.2712 15.6772C24.6476 15.4565 23.7799 16.1585 22.8614 16.9018C22.1426 17.4838 21.399 18.0857 20.3273 18.0949H20.3242C20.1443 18.0949 19.9981 17.9501 19.9964 17.7695C19.9947 17.5884 20.1404 17.4406 20.3214 17.4392C21.1644 17.4319 21.7598 16.9501 22.4489 16.3923C22.4676 16.3773 22.4869 16.3616 22.5059 16.3463C22.0921 16.0661 21.2966 15.6362 20.3144 15.6362H20.2843C19.5069 15.6432 19.0984 15.8856 18.666 16.1423C18.4763 16.2548 18.2826 16.3686 18.0625 16.4626C18.344 16.5812 18.6588 16.6585 19.0536 16.6616C19.2347 16.6632 19.38 16.8111 19.3786 16.9919C19.377 17.173 19.219 17.3273 19.0477 17.3173C17.995 17.3083 17.3778 16.8773 16.7815 16.4601C16.0393 15.9417 15.3409 15.4526 13.6919 15.6766C10.769 16.0753 9.52396 18.9802 9.8041 21.644C9.96872 23.2045 11.0463 25.2505 11.9969 27.0555C12.6277 28.2534 13.2237 29.3847 13.4746 30.2341C13.7486 31.1629 13.8435 32.0876 13.935 32.9816C14.0524 34.1291 14.1741 35.3161 14.6746 36.5684C15.2762 38.0739 16.2901 39.2405 16.84 39.8019C17.0259 39.9916 17.3077 40.0511 17.558 39.9529C17.8545 39.8362 18.0278 39.5276 17.9687 39.2193C17.5075 36.8022 17.4687 34.2525 17.8537 31.6407C18.0116 30.5693 18.9061 29.7917 19.9803 29.7917C21.0546 29.7917 21.9488 30.5693 22.107 31.6405C22.4923 34.2526 22.4535 36.8023 21.992 39.2197C21.9329 39.528 22.1062 39.8363 22.4027 39.9533C22.6525 40.0523 22.9348 39.9926 23.1207 39.8023C23.6712 39.241 24.6848 38.0741 25.2861 36.5688C25.7866 35.3163 25.908 34.1294 26.0257 32.982C26.1172 32.088 26.2118 31.1634 26.4861 30.2345C26.7369 29.3849 27.3329 28.2535 27.9638 27.056C28.9145 25.251 29.9922 23.2052 30.1566 21.6444C30.4387 18.9806 29.1935 16.0758 26.271 15.6776L26.2712 15.6772Z" fill="#D4AF37"/>
<path d="M32.5187 3.55635C31.1356 0.346499 27.4247 0 25.8931 0C24.9941 0 24.2026 0.257256 23.3649 0.530134C22.4176 0.838448 21.3443 1.18778 19.9804 1.18778C18.6166 1.18778 17.5426 0.838726 16.5959 0.530134C15.7581 0.257256 14.9667 0 14.0677 0C12.5362 0 8.82524 0.346542 7.44217 3.55635C6.39896 5.97791 7.35428 9.92826 7.81355 11.5135C7.89027 11.7791 8.15199 11.9443 8.42152 11.9063L11.2982 11.5126C11.5342 11.4803 11.7231 11.3011 11.768 11.0673L12.15 9.08154C12.4017 7.77376 13.5506 6.82426 14.8827 6.82426H25.0791C26.4111 6.82426 27.5601 7.77376 27.8118 9.08154L28.1938 11.067C28.2387 11.3011 28.4276 11.4803 28.6636 11.5123L31.5403 11.906C31.8132 11.9434 32.071 11.7782 32.1483 11.5129C32.6067 9.92755 33.5623 5.97778 32.5188 3.5565L32.5187 3.55635Z" fill="#D4AF37"/>
<path d="M19.9801 8.22717C19.7987 8.22717 19.6522 8.37394 19.6522 8.55501V13.4824L18.7906 12.632C18.662 12.5048 18.455 12.5059 18.3269 12.6351C18.1997 12.764 18.2011 12.9716 18.3303 13.0988L19.7477 14.4984C19.748 14.4986 19.7488 14.4995 19.7491 14.4998L19.7502 14.5009C19.7555 14.5062 19.7628 14.5081 19.7686 14.5129C19.7951 14.5357 19.823 14.5567 19.856 14.5703C19.8959 14.5868 19.9383 14.5955 19.9807 14.5955C20.0234 14.5955 20.0655 14.5865 20.1054 14.5703C20.1383 14.557 20.1665 14.5355 20.1927 14.5126C20.1983 14.5076 20.2056 14.5059 20.2109 14.5009L20.212 14.4998C20.2123 14.4995 20.2131 14.4986 20.2134 14.4984L21.6308 13.0988C21.76 12.9716 21.7611 12.764 21.6342 12.6351C21.5064 12.5059 21.2991 12.5053 21.1704 12.632L20.3089 13.4824L20.3077 8.55502C20.308 8.37422 20.1615 8.22717 19.9802 8.22717L19.9801 8.22717Z" fill="#D4AF37"/>
</g>
<defs>
<clipPath id="clip0_109_1958">
<rect width="40" height="40" fill="white"/>
</clipPath>
</defs>
</svg>
