<svg width="48" height="40" viewBox="0 0 48 40" fill="none" xmlns="http://www.w3.org/2000/svg">
<g clip-path="url(#clip0_109_1882)" filter="url(#filter0_d_109_1882)">
<path d="M5.76098 21.8571C5.76098 23.9685 6.6275 25.8832 8.08362 26.9682C8.28026 27.1138 8.50583 27.1866 8.73888 27.1866C8.93552 27.1866 9.13931 27.1356 9.31418 27.0192C9.69283 26.779 9.89662 26.3347 9.81667 25.8978C9.76564 25.6212 9.73671 25.3225 9.73671 25.0241C9.73671 23.4952 10.3627 22.6725 10.6175 22.6725C10.8724 22.6725 11.4984 23.4952 11.4984 25.0241C11.4984 25.33 11.4691 25.6212 11.4184 25.8978C11.3385 26.3418 11.5348 26.7861 11.9209 27.0192C12.2996 27.2522 12.7874 27.2376 13.1515 26.9682C14.6076 25.8832 15.4741 23.9685 15.4741 21.8571C15.4741 21.4131 15.4305 20.9763 15.3503 20.5394C16.5152 19.7603 17.2214 18.4644 17.2214 17.0301C17.2214 14.6931 15.3213 12.8002 12.9915 12.8002C12.1396 12.8002 11.3098 13.055 10.6107 13.5354C9.9119 13.055 9.08894 12.8002 8.22991 12.8002C5.89296 12.8002 4 14.7003 4 17.0301C4 18.4569 4.70629 19.7603 5.87116 20.5394C5.80453 20.9763 5.76097 21.4203 5.76097 21.8571L5.76098 21.8571Z" fill="#D4AF37"/>
<path d="M39.8274 12.8C38.9756 12.8 38.1458 13.0549 37.4466 13.5353C36.7478 13.0549 35.9249 12.8 35.0658 12.8C32.7289 12.8 30.8359 14.7002 30.8359 17.0299C30.8359 18.4568 31.5422 19.7601 32.7071 20.5393C32.6271 20.9761 32.5833 21.4129 32.5833 21.8569C32.5833 23.9683 33.4498 25.8831 34.9059 26.968C35.1025 27.1136 35.3281 27.1864 35.5612 27.1864C35.7578 27.1864 35.9616 27.1354 36.1365 27.019C36.5151 26.786 36.7189 26.3345 36.6389 25.8977C36.5879 25.6211 36.559 25.3224 36.559 25.024C36.559 23.4951 37.185 22.6724 37.4398 22.6724C37.6947 22.6724 38.3207 23.495 38.3207 25.024C38.3207 25.3298 38.2914 25.6211 38.2407 25.8977C38.1607 26.3416 38.357 26.786 38.7432 27.019C39.1218 27.2521 39.6097 27.2374 39.9737 26.968C41.4299 25.8831 42.2964 23.9683 42.2964 21.8569C42.2964 21.413 42.2528 20.9761 42.1725 20.5393C43.3374 19.7602 44.0437 18.4643 44.0437 17.0299C44.0573 14.7002 42.1572 12.8001 39.8274 12.8001L39.8274 12.8Z" fill="#D4AF37"/>
<path d="M26.4153 12.8001C25.5635 12.8001 24.7336 13.0549 24.0345 13.5353C23.3357 13.0549 22.5128 12.8001 21.6537 12.8001C19.3168 12.8001 17.4238 14.7002 17.4238 17.03C17.4238 18.4568 18.1301 19.7601 19.295 20.5393C19.215 20.9761 19.1711 21.413 19.1711 21.857C19.1711 23.9683 20.0377 25.8831 21.4938 26.968C21.8578 27.2375 22.3457 27.2593 22.7243 27.0191C23.103 26.786 23.3068 26.3345 23.2268 25.8977C23.1758 25.6211 23.1469 25.3224 23.1469 25.024C23.1469 23.4951 23.7729 22.6724 24.0277 22.6724C24.2825 22.6724 24.9085 23.4951 24.9085 25.024C24.9085 25.3299 24.8793 25.6211 24.8286 25.8977C24.7486 26.3417 24.9449 26.786 25.3311 27.0191C25.5059 27.1283 25.7097 27.1864 25.9064 27.1864C26.1394 27.1864 26.365 27.1136 26.5616 26.968C28.0177 25.8831 28.8843 23.9683 28.8843 21.857C28.8843 21.413 28.8407 20.9761 28.7604 20.5393C29.9253 19.7602 30.6316 18.4643 30.6316 17.03C30.6452 14.7002 28.7451 12.8 26.4153 12.8L26.4153 12.8001Z" fill="#D4AF37"/>
</g>
<defs>
<filter id="filter0_d_109_1882" x="0" y="0" width="48" height="48" filterUnits="userSpaceOnUse" color-interpolation-filters="sRGB">
<feFlood flood-opacity="0" result="BackgroundImageFix"/>
<feColorMatrix in="SourceAlpha" type="matrix" values="0 0 0 0 0 0 0 0 0 0 0 0 0 0 0 0 0 0 127 0" result="hardAlpha"/>
<feOffset dy="4"/>
<feGaussianBlur stdDeviation="2"/>
<feComposite in2="hardAlpha" operator="out"/>
<feColorMatrix type="matrix" values="0 0 0 0 0 0 0 0 0 0 0 0 0 0 0 0 0 0 0.25 0"/>
<feBlend mode="normal" in2="BackgroundImageFix" result="effect1_dropShadow_109_1882"/>
<feBlend mode="normal" in="SourceGraphic" in2="effect1_dropShadow_109_1882" result="shape"/>
</filter>
<clipPath id="clip0_109_1882">
<rect width="40" height="40" fill="white" transform="translate(4)"/>
</clipPath>
</defs>
</svg>
