<svg width="40" height="40" viewBox="0 0 40 40" fill="none" xmlns="http://www.w3.org/2000/svg">
<g clip-path="url(#clip0_175_2767)">
<path d="M39.9233 9.23669L25.8933 23.2667C24.3289 24.8271 22.2096 25.7034 20 25.7034C17.7904 25.7034 15.671 24.8271 14.1067 23.2667L0.0766666 9.23669C0.0533333 9.50003 0 9.73836 0 10V30C0.00264643 32.2093 0.88147 34.3274 2.4437 35.8896C4.00593 37.4519 6.12401 38.3307 8.33333 38.3333H31.6667C33.876 38.3307 35.9941 37.4519 37.5563 35.8896C39.1185 34.3274 39.9973 32.2093 40 30V10C40 9.73836 39.9467 9.50003 39.9233 9.23669Z" fill="#D4AF37"/>
<path d="M23.5369 20.9101L38.7603 5.68509C38.0228 4.46228 36.9827 3.45015 35.7402 2.7463C34.4978 2.04245 33.0949 1.67065 31.6669 1.66675H8.33357C6.90561 1.67065 5.50274 2.04245 4.26028 2.7463C3.01782 3.45015 1.9777 4.46228 1.24023 5.68509L16.4636 20.9101C17.4029 21.8456 18.6746 22.3709 20.0002 22.3709C21.3259 22.3709 22.5976 21.8456 23.5369 20.9101Z" fill="#D4AF37"/>
</g>
<defs>
<clipPath id="clip0_175_2767">
<rect width="40" height="40" fill="white"/>
</clipPath>
</defs>
</svg>
