<svg width="40" height="40" viewBox="0 0 40 40" fill="none" xmlns="http://www.w3.org/2000/svg">
<path d="M26.8353 10.5755C26.6713 10.5459 26.5021 10.5807 26.3628 10.6723C26.2246 10.7682 26.1324 10.9176 26.1085 11.0843C25.8664 12.8226 23.1349 14.2336 20.0097 14.2336C16.8847 14.2336 14.1469 12.8527 13.9048 11.0843C13.8823 10.9185 13.7924 10.7694 13.6565 10.6723C13.5172 10.5807 13.348 10.5459 13.184 10.5755C11.3658 10.953 9.73065 11.9398 8.54911 13.3724C7.36758 14.805 6.71026 16.5979 6.68555 18.4548C6.68555 21.8042 7.83001 25.4379 9.19893 29.6171C10.0831 32.3485 11.0946 35.4433 11.8516 38.7746V38.7743C11.9743 39.2638 12.3265 39.6634 12.7965 39.8464C13.0042 39.9306 13.2262 39.9737 13.4506 39.9737C13.7571 39.9751 14.0576 39.8889 14.3167 39.7252C16.3759 38.4169 18.2231 34.7772 19.5072 29.4778H19.5069C19.604 29.2913 19.7965 29.1744 20.0065 29.1744C20.2168 29.1744 20.4092 29.2913 20.5063 29.4778C21.8266 34.7772 23.6434 38.4169 25.6965 39.7252C26.1562 40.009 26.7244 40.0541 27.2228 39.8464C27.696 39.6608 28.0485 39.2563 28.1677 38.7622C28.9186 35.4253 29.9301 32.3304 30.8204 29.5989C32.1832 25.4383 33.3642 21.8048 33.3642 18.455C33.3381 16.594 32.6762 14.7977 31.4886 13.3644C30.301 11.9312 28.6592 10.947 26.8353 10.5756L26.8353 10.5755ZM12.4571 28.5573L12.651 28.4967L12.0454 28.6846L12.4269 28.5573L12.0394 28.6786C10.7555 24.7418 9.64695 21.3382 9.64695 18.4554V18.4551C9.68142 16.9027 10.4358 15.4548 11.688 14.5367C11.9543 14.352 12.3189 14.4098 12.5151 14.6677C12.7113 14.9254 12.6699 15.2923 12.4209 15.4996C11.474 16.2029 10.9078 17.3063 10.8885 18.4856C10.8885 21.1808 11.9727 24.4937 13.2264 28.3337L12.4571 28.5573ZM29.8572 22.1858C29.403 24.2089 28.646 26.4798 27.9434 28.6722C27.3984 30.3438 26.8351 32.0577 26.3022 33.9109C26.2244 34.1784 25.9744 34.3582 25.6964 34.347C25.6424 34.3559 25.5872 34.3559 25.5329 34.347C25.3775 34.3034 25.2462 34.1997 25.1678 34.0586C25.0893 33.9175 25.0704 33.7512 25.1149 33.5961C25.6599 31.7248 26.2232 30.0046 26.7682 28.3393C27.4829 26.1529 28.2158 23.9121 28.6578 21.9437H28.6581C28.74 21.6268 29.0586 21.4323 29.3777 21.5044C29.6966 21.5765 29.9009 21.8888 29.8391 22.21L29.8572 22.1858Z" fill="#D4AF37"/>
<path d="M19.4048 5.03421V9.69151L18.3451 8.63176H18.3448C18.1086 8.39677 17.7271 8.39677 17.491 8.63176C17.3764 8.74523 17.3118 8.90007 17.3118 9.06153C17.3118 9.22326 17.3764 9.37782 17.491 9.49158L19.5804 11.5809V11.5812C19.6375 11.6384 19.7053 11.6838 19.7803 11.7145C19.9285 11.7708 20.0923 11.7708 20.2405 11.7145C20.3141 11.6815 20.3819 11.6364 20.4405 11.5812L22.5298 9.49187V9.49158C22.7674 9.25429 22.7674 8.86906 22.5298 8.6318C22.2925 8.39422 21.9073 8.39422 21.67 8.6318L20.616 9.69154V5.03425C24.159 4.85872 26.9935 3.12648 27.2782 0.8613C27.3233 0.546156 27.1171 0.249692 26.8056 0.183041C25.2271 -0.150489 23.5862 -0.0263863 22.0757 0.540413C20.7229 1.04918 19.2314 1.04918 17.8786 0.540413C16.3681 -0.026379 14.7272 -0.150482 13.1487 0.183041C12.8373 0.249688 12.631 0.546156 12.6761 0.8613C13.0214 3.12648 15.8559 4.84642 19.4049 5.03425L19.4048 5.03421Z" fill="#D4AF37"/>
</svg>
