<svg width="40" height="40" viewBox="0 0 40 40" fill="none" xmlns="http://www.w3.org/2000/svg">
<g clip-path="url(#clip0_109_1807)">
<path d="M20.012 13.9114C21.7408 12.0586 26.4345 13.4793 26.4345 13.4793C28.7195 10.8241 32.8579 12.1823 32.8579 12.1823C37.2431 9.6498 38.5392 13.9117 38.5392 13.9117C41.6887 7.24246 38.8475 2.85718 38.8475 2.85718C38.8475 2.85718 28.719 4.03043 20.0118 4.03043C11.3038 4.03043 1.17608 2.85718 1.17608 2.85718C1.17608 2.85718 -1.66504 7.24179 1.48445 13.9117C1.48445 13.9117 2.78148 9.65047 7.16643 12.1823C7.16643 12.1823 11.3039 10.8237 13.5892 13.4793C13.5892 13.4793 18.2822 12.0592 20.012 13.9114H20.012Z" fill="#D4AF37"/>
<path d="M5.68462 18.8524H2.96687C2.35406 18.8524 1.85547 18.3535 1.85547 17.7407V14.3423C1.97103 14.0153 2.72233 12.1196 4.61772 12.1196C5.26948 12.1196 6.00181 12.3383 6.79627 12.7698V17.7401C6.79562 18.3535 6.29673 18.8524 5.68453 18.8524L5.68462 18.8524Z" fill="#D4AF37"/>
<path d="M12.1071 19.9637H8.64885C8.03538 19.9637 7.53711 19.4655 7.53711 18.8523V12.8336C7.91684 12.737 8.68027 12.5759 9.56641 12.5759C11.1292 12.5759 12.3565 13.0519 13.2184 13.9904V18.8521C13.2184 19.4652 12.7202 19.9638 12.107 19.9638L12.1071 19.9637Z" fill="#D4AF37"/>
<path d="M18.5313 20.7045H15.073C14.4595 20.7045 13.9613 20.2057 13.9613 19.5928V18.8517L13.9609 14.1325C14.4981 13.9931 15.7775 13.7004 17.0509 13.7004C18.2415 13.7004 19.1126 13.9479 19.6423 14.4363V19.5935C19.6423 20.206 19.1437 20.7046 18.5312 20.7046L18.5313 20.7045Z" fill="#D4AF37"/>
<path d="M26.0645 19.5924C26.0645 20.2052 25.5656 20.7042 24.953 20.7042H21.4942C20.8814 20.7042 20.3828 20.2053 20.3828 19.5924L20.3831 14.4352C20.9131 13.9468 21.7836 13.6993 22.9745 13.6993C24.2473 13.6993 25.5266 13.9923 26.0644 14.1314L26.0645 19.5924Z" fill="#D4AF37"/>
<path d="M32.4863 18.8525C32.4863 19.4654 31.9874 19.9639 31.3749 19.9639H27.9161C27.3033 19.9639 26.8047 19.4657 26.8047 18.8525V13.9909C27.6669 13.0524 28.8946 12.5764 30.4574 12.5764C31.3428 12.5764 32.1069 12.7375 32.486 12.834V17.7412L32.4863 18.8525Z" fill="#D4AF37"/>
<path d="M38.1675 17.7404C38.1675 18.3532 37.6686 18.8522 37.0557 18.8522H34.3383C33.7248 18.8522 33.2266 18.3533 33.2266 17.7404V12.7701C34.0211 12.339 34.7534 12.12 35.4044 12.12C37.3136 12.12 38.0508 14.0036 38.1677 14.3418L38.168 17.7404L38.1675 17.7404Z" fill="#D4AF37"/>
<path d="M20.0109 30.0294C21.6083 31.366 25.9213 29.9122 25.9213 29.9122C28.0059 31.5238 31.6857 29.5629 31.6857 29.5629C35.539 30.2199 36.5477 26.4639 36.5477 26.4639C39.1623 30.0638 36.804 34.3205 36.804 34.3205C31.454 36.3295 25.7143 37.1809 20.0106 37.1587C14.3077 37.1806 8.56805 36.3304 3.21802 34.3205C3.21802 34.3205 0.860374 30.0638 3.47434 26.4639C3.47434 26.4639 4.48225 30.2203 8.33596 29.5629C8.33596 29.5629 12.0151 31.5238 14.1004 29.9122C14.1001 29.9119 18.413 31.3654 20.0105 30.0294H20.0109Z" fill="#D4AF37"/>
<path d="M3.84575 26.0403V23.5976C3.84575 23.4605 3.88143 23.3197 4.14953 23.3197C4.27295 23.3197 4.41928 23.3541 4.57248 23.4179C5.48351 23.7999 5.9674 23.9842 6.92259 24.3116C7.48794 24.5054 7.96587 25.0256 7.9662 25.4472L7.96653 28.8704C7.79434 28.8891 7.62444 28.8986 7.46142 28.8986C4.8128 28.8982 3.95934 26.4159 3.8457 26.0404L3.84575 26.0403Z" fill="#D4AF37"/>
<path d="M8.70703 28.9617V25.4491V25.4472V24.6474C8.70703 24.3001 9.06745 24.2625 9.22294 24.2625C9.32606 24.2625 9.43704 24.2778 9.55194 24.3083C10.7844 24.6363 11.429 24.78 12.6874 25.0072C13.2534 25.1103 13.7316 25.5332 13.7316 25.9323V29.3512C13.2724 29.654 12.6926 29.8069 12.0045 29.8069C10.6342 29.8066 9.21672 29.2019 8.70703 28.9617V28.9617Z" fill="#D4AF37"/>
<path d="M14.4727 29.2683V25.3967C14.4727 25.0458 14.8674 24.8618 15.257 24.8618C15.3091 24.8618 15.3627 24.8648 15.4174 24.8713C16.6849 25.0134 17.3459 25.0605 18.6311 25.1037C19.1886 25.1214 19.6417 25.4458 19.6417 25.8249V29.472C19.2561 29.7244 18.676 29.8531 17.9142 29.8531C16.5695 29.8527 15.0597 29.4439 14.4728 29.2684L14.4727 29.2683Z" fill="#D4AF37"/>
<path d="M20.3828 29.4721V25.8249C20.3828 25.4458 20.8365 25.1224 21.3937 25.1037C22.6753 25.0612 23.3362 25.0137 24.6074 24.8713C25.0673 24.8212 25.5521 24.9987 25.5521 25.3971V29.2687C24.9651 29.4442 23.457 29.8524 22.1103 29.8524C21.3492 29.8531 20.7687 29.7244 20.3828 29.472V29.4721Z" fill="#D4AF37"/>
<path d="M26.293 29.3505V25.9316C26.293 25.5325 26.7706 25.1099 27.3366 25.0065C28.5982 24.778 29.2428 24.6349 30.4723 24.3082C30.5869 24.2778 30.6982 24.2617 30.8017 24.2617C30.9565 24.2617 31.3169 24.2994 31.3169 24.6467V25.4468V25.4481V28.9606C30.8072 29.2009 29.3901 29.8052 28.0201 29.8052C27.3313 29.8061 26.7512 29.6529 26.293 29.3505L26.293 29.3505Z" fill="#D4AF37"/>
<path d="M36.177 26.0403C36.0625 26.4191 35.2081 28.8985 32.5611 28.8985C32.3977 28.8985 32.2288 28.889 32.0566 28.8703V25.4478C32.0576 25.0258 32.5352 24.506 33.1002 24.3125C34.0453 23.9881 34.5288 23.8041 35.451 23.4181C35.6036 23.3533 35.7499 23.3196 35.8733 23.3196C36.1408 23.3196 36.1771 23.4603 36.1771 23.5969L36.177 26.0403Z" fill="#D4AF37"/>
</g>
<defs>
<clipPath id="clip0_109_1807">
<rect width="40" height="40" fill="white"/>
</clipPath>
</defs>
</svg>
