<svg width="40" height="40" viewBox="0 0 40 40" fill="none" xmlns="http://www.w3.org/2000/svg">
<g clip-path="url(#clip0_170_2718)">
<path d="M23.6345 0.344959C23.3942 0.300731 23.1471 0.309887 22.9107 0.371779C22.6743 0.433671 22.4544 0.546784 22.2666 0.703107C22.0788 0.85943 21.9277 1.05514 21.8239 1.27637C21.7201 1.4976 21.6663 1.73894 21.6662 1.98329V6.78163C19.6482 6.51391 17.5957 6.71451 15.6678 7.36788C13.7398 8.02126 11.9882 9.10985 10.5488 10.5493C9.1094 11.9887 8.02081 13.7403 7.36744 15.6682C6.71406 17.5962 6.51346 19.6487 6.78118 21.6666H1.98285C1.7385 21.6668 1.49716 21.7206 1.27593 21.8244C1.0547 21.9281 0.858989 22.0793 0.702666 22.2671C0.546343 22.4549 0.43323 22.6748 0.371338 22.9112C0.309446 23.1475 0.30029 23.3947 0.344518 23.635C1.00454 27.2208 2.63224 30.558 5.05163 33.2858C7.47103 36.0135 10.5901 38.0279 14.0715 39.1113C17.5529 40.1947 21.2642 40.3057 24.8042 39.4325C28.3442 38.5592 31.5781 36.7349 34.1562 34.1567C36.7344 31.5785 38.5588 28.3446 39.432 24.8047C40.3053 21.2647 40.1942 17.5533 39.1108 14.0719C38.0275 10.5905 36.013 7.47148 33.2853 5.05208C30.5576 2.63268 27.2204 1.00498 23.6345 0.344959ZM19.9995 23.3333C19.4168 23.3317 18.8447 23.1768 18.3406 22.8843C17.8366 22.5918 17.4184 22.1718 17.1279 21.6666H13.3329C12.8908 21.6666 12.4669 21.491 12.1543 21.1785C11.8418 20.8659 11.6662 20.442 11.6662 20C11.6662 19.5579 11.8418 19.134 12.1543 18.8215C12.4669 18.5089 12.8908 18.3333 13.3329 18.3333H17.1279C17.4183 17.834 17.8336 17.4188 18.3329 17.1283V11.6666C18.3329 11.2246 18.5084 10.8007 18.821 10.4881C19.1336 10.1756 19.5575 9.99997 19.9995 9.99997C20.4415 9.99997 20.8655 10.1756 21.178 10.4881C21.4906 10.8007 21.6662 11.2246 21.6662 11.6666V17.1283C22.3019 17.4935 22.799 18.0587 23.0801 18.7358C23.3612 19.4129 23.4105 20.164 23.2203 20.8721C23.0301 21.5801 22.6112 22.2054 22.0286 22.6506C21.4461 23.0958 20.7327 23.3358 19.9995 23.3333ZM16.6195 0.166626C16.9492 0.166626 17.2714 0.264374 17.5455 0.44751C17.8195 0.630646 18.0332 0.890944 18.1593 1.19549C18.2855 1.50003 18.3185 1.83514 18.2542 2.15844C18.1899 2.48175 18.0311 2.77872 17.798 3.01181C17.5649 3.24489 17.268 3.40363 16.9447 3.46794C16.6214 3.53225 16.2863 3.49924 15.9817 3.37309C15.6772 3.24695 15.4169 3.03333 15.2337 2.75924C15.0506 2.48516 14.9529 2.16293 14.9529 1.83329C14.9529 1.39127 15.1284 0.967342 15.441 0.654782C15.7536 0.342221 16.1775 0.166626 16.6195 0.166626ZM9.78619 3.09329C10.1158 3.09329 10.4381 3.19104 10.7121 3.37418C10.9862 3.55731 11.1998 3.81761 11.326 4.12216C11.4521 4.4267 11.4851 4.76181 11.4208 5.08511C11.3565 5.40841 11.1978 5.70539 10.9647 5.93847C10.7316 6.17156 10.4346 6.3303 10.1113 6.39461C9.78803 6.45891 9.45292 6.42591 9.14838 6.29976C8.84384 6.17362 8.58354 5.96 8.4004 5.68591C8.21727 5.41183 8.11952 5.0896 8.11952 4.75996C8.11863 4.31822 8.29315 3.8942 8.60473 3.58106C8.9163 3.26792 9.33945 3.09129 9.78119 3.08996L9.78619 3.09329ZM4.63119 8.0683C4.96082 8.0683 5.28305 8.16605 5.55714 8.34918C5.83122 8.53232 6.04484 8.79262 6.17098 9.09716C6.29713 9.4017 6.33014 9.73681 6.26583 10.0601C6.20152 10.3834 6.04278 10.6804 5.8097 10.9135C5.57661 11.1466 5.27964 11.3053 4.95634 11.3696C4.63303 11.4339 4.29792 11.4009 3.99338 11.2748C3.68884 11.1486 3.42854 10.935 3.2454 10.6609C3.06227 10.3868 2.96452 10.0646 2.96452 9.73497C2.96452 9.29294 3.14011 8.86901 3.45267 8.55645C3.76523 8.24389 4.18916 8.0683 4.63119 8.0683ZM1.96452 15.0133C2.29415 15.0133 2.61639 15.1111 2.89047 15.2942C3.16455 15.4773 3.37817 15.7376 3.50432 16.0422C3.63046 16.3467 3.66347 16.6818 3.59916 17.0051C3.53485 17.3284 3.37612 17.6254 3.14303 17.8585C2.90994 18.0916 2.61297 18.2503 2.28967 18.3146C1.96637 18.3789 1.63126 18.3459 1.32671 18.2198C1.02217 18.0936 0.761871 17.88 0.578736 17.6059C0.3956 17.3318 0.297852 17.0096 0.297852 16.68C0.297851 16.2385 0.472988 15.8151 0.784828 15.5026C1.09667 15.1902 1.51974 15.0142 1.96118 15.0133H1.96452Z" fill="#D4AF37"/>
</g>
<defs>
<clipPath id="clip0_170_2718">
<rect width="40" height="40" fill="white"/>
</clipPath>
</defs>
</svg>
