<svg width="40" height="40" viewBox="0 0 40 40" fill="none" xmlns="http://www.w3.org/2000/svg">
<g clip-path="url(#clip0_141_2075)">
<path d="M39.5463 24.7757V15.2465C39.5463 14.1983 38.6889 13.3408 37.6406 13.3408H27.6349C27.1108 13.3408 26.6821 12.9121 26.6821 12.388L26.6817 2.38223C26.6817 1.33401 25.8243 0.476548 24.776 0.476548L15.2468 0.476216C14.1985 0.476216 13.3411 1.33368 13.3411 2.3819V12.3876C13.3411 12.9118 12.9123 13.3405 12.3882 13.3405L2.3825 13.3408C1.33428 13.3408 0.476812 14.1983 0.476812 15.2465V24.7757C0.476812 25.824 1.33428 26.6814 2.3825 26.6814H12.3882C12.9124 26.6814 13.3411 27.1102 13.3411 27.6343V37.64C13.3411 38.6882 14.1985 39.5457 15.2468 39.5457H24.776C25.8243 39.5457 26.6817 38.6882 26.6817 37.64V27.6343C26.6817 27.1101 27.1105 26.6814 27.6346 26.6814H37.6403C38.6885 26.6811 39.5463 25.8236 39.5463 24.7754L39.5463 24.7757ZM29.5406 22.8701C29.5406 23.3942 29.1118 23.8229 28.5877 23.8229H23.8231V28.5875C23.8231 29.1117 23.3944 29.5404 22.8703 29.5404H17.1524C16.6283 29.5404 16.1996 29.1116 16.1996 28.5875V23.8229H11.435C10.9108 23.8229 10.4821 23.3942 10.4821 22.8701V17.1522C10.4821 16.6281 10.9109 16.1994 11.435 16.1994H16.1996V11.4348C16.1996 10.9106 16.6283 10.4819 17.1524 10.4819H22.8699C23.394 10.4819 23.8228 10.9107 23.8228 11.4348V16.1994H28.5874C29.1115 16.1994 29.5402 16.6281 29.5402 17.1522L29.5406 22.8701ZM22.8703 18.1054H27.6349V21.9172L22.8703 21.9169C22.3461 21.9169 21.9174 22.3456 21.9174 22.8697V27.6344H18.1056V22.8701C18.1056 22.3459 17.6769 21.9172 17.1528 21.9172L12.3878 21.9169V18.1051H17.1524C17.6766 18.1051 18.1053 17.6764 18.1053 17.1523L18.1056 12.3876H21.9174V17.1523C21.9171 17.6764 22.3462 18.1054 22.8703 18.1054L22.8703 18.1054ZM0 4.288C0 3.76387 0.428741 3.33516 0.952842 3.33516H3.33516V0.952841C3.33516 0.428715 3.7639 0 4.288 0C4.81213 0 5.24085 0.42874 5.24085 0.952841V3.33516H7.62317C8.14729 3.33516 8.57601 3.7639 8.57601 4.288C8.57601 4.81213 8.14727 5.24084 7.62317 5.24084H5.24085V7.62316C5.24085 8.14728 4.81211 8.576 4.288 8.576C3.76388 8.576 3.33516 8.14726 3.33516 7.62316V5.24084H0.952842C0.428715 5.24084 0 4.8121 0 4.288ZM31.4466 4.288C31.4466 3.76387 31.8754 3.33516 32.3995 3.33516H34.7818V0.952841C34.7818 0.428715 35.2105 0 35.7346 0C36.2587 0 36.6875 0.42874 36.6875 0.952841V3.33516H39.0698C39.5939 3.33516 40.0226 3.7639 40.0226 4.288C40.0226 4.81213 39.5939 5.24084 39.0698 5.24084H36.6875V7.62316C36.6875 8.14728 36.2587 8.576 35.7346 8.576C35.2105 8.576 34.7818 8.14726 34.7818 7.62316V5.24084H32.3995C31.8757 5.24084 31.4466 4.8121 31.4466 4.288ZM8.57635 35.7346C8.57635 36.2587 8.14761 36.6874 7.62351 36.6874H5.24119V39.0697C5.24119 39.5939 4.81245 40.0226 4.28834 40.0226C3.76424 40.0226 3.3355 39.5938 3.3355 39.0697V36.6874H0.953182C0.429055 36.6874 0.000340144 36.2587 0.000340144 35.7346C0.000340144 35.2104 0.429081 34.7817 0.953182 34.7817H3.3355V32.3994C3.3355 31.8753 3.76424 31.4466 4.28834 31.4466C4.81245 31.4466 5.24119 31.8753 5.24119 32.3994V34.7817H7.62351C8.14729 34.7817 8.57635 35.2105 8.57635 35.7346ZM40.023 35.7346C40.023 36.2587 39.5942 36.6874 39.0701 36.6874H36.6878V39.0697C36.6878 39.5939 36.2591 40.0226 35.735 40.0226C35.2108 40.0226 34.7821 39.5938 34.7821 39.0697V36.6874H32.3998C31.8757 36.6874 31.447 36.2587 31.447 35.7346C31.447 35.2104 31.8757 34.7817 32.3998 34.7817H34.7821V32.3994C34.7821 31.8753 35.2109 31.4466 35.735 31.4466C36.2591 31.4466 36.6878 31.8753 36.6878 32.3994V34.7817H39.0701C39.5942 34.7817 40.023 35.2105 40.023 35.7346Z" fill="#D4AF37"/>
</g>
<defs>
<clipPath id="clip0_141_2075">
<rect width="40" height="40" fill="white"/>
</clipPath>
</defs>
</svg>
