<svg width="40" height="40" viewBox="0 0 40 40" fill="none" xmlns="http://www.w3.org/2000/svg">
<path d="M33.9995 7.99997H29.9994L29.9998 6.00006C29.9998 2.69197 27.3079 0 23.9998 0H16C12.6916 0 9.9997 2.69197 9.9997 6.00006V7.99997H5.99996C2.69192 7.99997 0 10.6919 0 14V33.9999C0 37.308 2.69192 40 5.99996 40H34C37.3081 40 40 37.308 40 33.9999L39.9997 14C39.9997 10.6919 37.3077 7.99997 33.9997 7.99997H33.9995ZM25.9997 26.0001H21.9996V30.0003H17.9995V26.0001H13.9998V22H17.9999V17.9998H22V22H26L25.9997 26.0001ZM25.9997 7.99997H13.9998V6.00006C13.9998 4.89613 14.8978 4.00015 15.9997 4.00015H23.9995C25.1013 4.00015 25.9994 4.89613 25.9994 6.00006L25.9997 7.99997Z" fill="#D4AF37"/>
</svg>
