<svg width="40" height="40" viewBox="0 0 40 40" fill="none" xmlns="http://www.w3.org/2000/svg">
<path d="M5.39997 4.68081H7.6459C7.98124 4.68081 8.25419 4.40787 8.25419 4.07252C8.25419 3.74293 7.97549 3.46484 7.6459 3.46484H3.75025C3.42066 3.46484 3.14258 3.74323 3.14258 4.07252C3.14258 4.41059 3.41521 4.68564 3.75025 4.68564H5.35065C5.36701 4.68352 5.38307 4.6808 5.40003 4.6808L5.39997 4.68081Z" fill="#D4AF37"/>
<path d="M19.972 5.53467C16.9106 5.53467 14.4199 8.02534 14.4199 11.0868C14.4199 14.1454 16.9106 16.634 19.972 16.634C23.0335 16.634 25.5242 14.1454 25.5242 11.0868C25.5245 8.02534 23.0338 5.53467 19.972 5.53467ZM23.3076 11.9971C23.3076 12.1846 23.1559 12.3363 22.9684 12.3363H21.2211V14.0782C21.2211 14.2657 21.0693 14.4175 20.8818 14.4175H19.0618C18.8742 14.4175 18.7225 14.2657 18.7225 14.0782V12.3363H16.9758C16.7883 12.3363 16.6365 12.1846 16.6365 11.9971V10.177C16.6365 9.98952 16.7883 9.83776 16.9758 9.83776H18.7225V8.09048C18.7225 7.90296 18.8742 7.7512 19.0618 7.7512H20.8818C21.0693 7.7512 21.2211 7.90296 21.2211 8.09048V9.83776H22.9684C23.1559 9.83776 23.3076 9.98952 23.3076 10.177L23.3079 11.9971H23.3076Z" fill="#D4AF37"/>
<path d="M20.5422 10.1775V8.43018H19.4007V10.1775C19.4007 10.365 19.2489 10.5167 19.0614 10.5167H17.3145V11.6582H19.0611C19.2486 11.6582 19.4004 11.81 19.4004 11.9975V13.7393H20.5418V11.9975C20.5418 11.81 20.6936 11.6582 20.8811 11.6582H22.6284V10.5167H20.8811C20.6939 10.5167 20.5422 10.365 20.5422 10.1775H20.5422Z" fill="#D4AF37"/>
<path d="M8.25418 33.5673C8.25418 33.2319 7.98125 32.959 7.6459 32.959H3.75025C3.41521 32.959 3.14258 33.2319 3.14258 33.5673C3.14258 33.9023 3.41521 34.1749 3.75025 34.1749H7.6459C7.98124 34.1752 8.25418 33.9026 8.25418 33.5673Z" fill="#D4AF37"/>
<path d="M7.6459 14.5156C7.98124 14.5156 8.25419 14.2429 8.25419 13.9076C8.25419 13.5723 7.98125 13.2993 7.6459 13.2993H3.75025C3.41521 13.2993 3.14258 13.5723 3.14258 13.9076C3.14258 14.2429 3.41521 14.5156 3.75025 14.5156H7.6459Z" fill="#D4AF37"/>
<path d="M7.6459 24.3458C7.98124 24.3458 8.25419 24.0732 8.25419 23.7382C8.25419 23.4028 7.98125 23.1299 7.6459 23.1299H3.75025C3.41521 23.1299 3.14258 23.4028 3.14258 23.7382C3.14258 24.0732 3.41521 24.3458 3.75025 24.3458H7.6459Z" fill="#D4AF37"/>
<path d="M36.0454 2.3042H34.8837V36.7876C34.8837 37.6349 34.1945 38.324 33.3473 38.324H8.43359V39.0917C8.43359 39.5679 8.81861 39.9556 9.29176 39.9556H36.0457C36.5162 39.9556 36.8988 39.5682 36.8988 39.0917L36.8985 3.16271C36.8985 2.68923 36.5162 2.30423 36.0457 2.30423L36.0454 2.3042Z" fill="#D4AF37"/>
<path d="M34.2048 36.7871V0.858169C34.2048 0.38499 33.8201 0 33.347 0H6.5984C6.12522 0 5.74023 0.385021 5.74023 0.858169V2.78599H7.64688C8.35634 2.78599 8.93375 3.36307 8.93375 4.07223C8.93375 4.78442 8.35636 5.3639 7.64688 5.3639L5.74023 5.36451V12.6212H7.64688C8.35634 12.6212 8.93375 13.1986 8.93375 13.908C8.93375 14.6175 8.35636 15.1946 7.64688 15.1946L5.74023 15.1943V22.451H7.64688C8.35634 22.451 8.93375 23.0283 8.93375 23.7378C8.93375 24.447 8.35636 25.0241 7.64688 25.0241H5.74023V32.2807H7.64688C8.35634 32.2807 8.93375 32.8581 8.93375 33.5676C8.93375 34.2768 8.35636 34.8539 7.64688 34.8539L5.74023 34.8542V36.7875C5.74023 37.2607 6.12526 37.6453 6.5984 37.6453H33.347C33.8201 37.6453 34.2048 37.2606 34.2048 36.7875V36.7871ZM24.6615 32.7839H14.0814C13.8938 32.7839 13.7421 32.6321 13.7421 32.4446C13.7421 32.2571 13.8938 32.1053 14.0814 32.1053H24.6615C24.849 32.1053 25.0008 32.2571 25.0008 32.4446C25.0008 32.6318 24.849 32.7839 24.6615 32.7839ZM13.7417 27.5535C13.7417 27.366 13.8935 27.2143 14.081 27.2143H24.0655C24.2531 27.2143 24.4048 27.366 24.4048 27.5535C24.4048 27.741 24.2531 27.8928 24.0655 27.8928H14.081C13.8938 27.8928 13.7417 27.7407 13.7417 27.5535ZM25.7627 23.0017H14.0806C13.8931 23.0017 13.7413 22.85 13.7413 22.6625C13.7413 22.4749 13.8931 22.3232 14.0806 22.3232H25.7627C25.9502 22.3232 26.102 22.4749 26.102 22.6625C26.102 22.85 25.9502 23.0017 25.7627 23.0017ZM19.9722 17.3124C16.5367 17.3124 13.7415 14.5194 13.7415 11.0866C13.7415 7.65109 16.5367 4.85595 19.9722 4.85595C23.4078 4.85595 26.2029 7.65109 26.2029 11.0866C26.2032 14.5195 23.4081 17.3124 19.9722 17.3124Z" fill="#D4AF37"/>
</svg>
