<svg width="40" height="40" viewBox="0 0 40 40" fill="none" xmlns="http://www.w3.org/2000/svg">
<g clip-path="url(#clip0_109_1847)">
<path d="M19.9519 7.49285C20.878 7.49285 21.5936 6.73529 21.5936 5.85115V1.64169C21.5936 0.715609 20.8361 0 19.9519 0C19.0259 0 18.3103 0.757553 18.3103 1.64169V5.80913C18.2683 6.73522 19.0258 7.49277 19.9519 7.49277V7.49285Z" fill="#D4AF37"/>
<path d="M12.5011 9.63972C12.8378 9.97652 13.2586 10.1028 13.6797 10.1028C14.1008 10.1028 14.5215 9.93453 14.8583 9.63972C15.4896 9.00842 15.4896 7.95609 14.8583 7.32444L11.9118 4.37789C11.2805 3.74659 10.2282 3.74659 9.59652 4.37789C8.96522 5.00919 8.96522 6.06153 9.59652 6.69317L12.5011 9.63972Z" fill="#D4AF37"/>
<path d="M26.2234 10.0607C26.6444 10.0607 27.0652 9.89241 27.402 9.5976L30.3485 6.65106C30.9798 6.01976 30.9798 4.96742 30.3485 4.33578C29.7172 3.70448 28.6649 3.70448 28.0333 4.33578L25.0868 7.28232C24.4555 7.91362 24.4555 8.96596 25.0868 9.5976C25.3813 9.89241 25.8023 10.0607 26.2234 10.0607Z" fill="#D4AF37"/>
<path d="M23.9927 12.9231C23.1085 12.965 22.2667 13.1756 21.4669 13.5544C20.4988 13.9754 19.3621 13.9754 18.394 13.5544C17.5941 13.2176 16.7523 13.007 15.8682 12.9231C11.322 12.6282 7.82812 16.5012 7.82812 21.2999C7.82812 23.9519 9.30159 25.7199 10.5222 28.919C11.2378 30.8555 11.4483 31.9919 12.3321 35.6543C12.7952 37.6748 13.8475 40.032 15.9522 40.032C18.057 40.032 17.8887 34.4754 18.3518 32.034C18.5623 30.8974 18.9411 30.3923 19.3199 29.9713C19.6567 29.5502 20.288 29.5502 20.6247 29.9713C21.0035 30.4344 21.3403 30.9394 21.5928 32.034C22.0559 34.4336 21.9296 40.032 23.9924 40.032C26.0971 40.032 27.1075 37.6748 27.6125 35.6543C28.4967 31.9922 28.6649 30.8555 29.4224 28.919C30.643 25.7199 32.1165 23.952 32.1165 21.2999C32.0325 16.5008 28.5809 12.5863 23.993 12.9231H23.9927Z" fill="#D4AF37"/>
</g>
<defs>
<clipPath id="clip0_109_1847">
<rect width="40" height="40" fill="white"/>
</clipPath>
</defs>
</svg>
